<svg version="1.1" id="Layer_1" xmlns="http://www.w3.org/2000/svg" xmlns:xlink="http://www.w3.org/1999/xlink" x="0px" y="0px"
	 width="100%" viewBox="0 0 577 123" enable-background="new 0 0 577 123" xml:space="preserve">
<path fill="#FEFEFE" opacity="1.000000" stroke="none" 
	d="
M387.000000,124.000000 
	C258.000000,124.000000 129.500000,124.000000 1.000000,124.000000 
	C1.000000,83.000000 1.000000,42.000000 1.000000,1.000000 
	C193.333328,1.000000 385.666656,1.000000 578.000000,1.000000 
	C578.000000,42.000000 578.000000,83.000000 578.000000,124.000000 
	C514.500000,124.000000 451.000000,124.000000 387.000000,124.000000 
M68.503113,37.940971 
	C68.332275,37.987316 68.161438,38.033665 67.163376,37.977242 
	C60.280628,40.102055 53.397881,42.226868 45.791405,44.575108 
	C42.266777,31.485916 44.527332,17.413406 44.282452,3.479999 
	C26.432642,8.417229 14.237391,24.159819 13.865578,43.827381 
	C13.744582,50.227619 14.336563,56.119480 5.807287,58.192486 
	C8.551639,60.735039 10.596887,62.629898 12.905644,64.768890 
	C10.698154,65.866310 8.729337,66.845078 6.437020,67.984673 
	C8.769962,70.863815 10.808927,73.380157 13.088828,76.193848 
	C10.579437,77.260818 8.513549,78.139221 4.819157,79.710045 
	C8.207091,81.957977 10.398890,84.283432 13.032985,85.013847 
	C26.687584,88.800179 38.878159,95.353928 50.255939,103.617554 
	C56.395092,108.076378 63.489162,111.538223 66.389259,119.347778 
	C66.554108,119.791687 67.476738,119.954201 68.708786,120.361122 
	C69.167114,119.925148 69.625443,119.489174 70.619843,118.621239 
	C73.165192,115.428955 75.178627,111.520012 78.347603,109.167961 
	C92.374855,98.756721 106.847725,89.075867 124.220490,84.784439 
	C126.617302,84.192383 128.528656,81.635071 131.205276,79.570709 
	C127.720345,78.029175 125.715668,77.142410 123.418800,76.126404 
	C125.895218,73.055351 127.932831,70.528465 130.105560,67.834038 
	C127.753510,66.760124 125.855644,65.893585 123.345932,64.747688 
	C125.922569,62.534832 128.046982,60.710354 130.951660,58.215775 
	C122.225845,56.192337 122.734695,50.347057 122.595909,43.903835 
	C122.172852,24.264370 109.272827,7.644592 92.073830,3.556314 
	C91.758125,17.507935 93.925667,31.603846 90.505531,44.437847 
	C82.805122,42.166237 75.907928,40.131573 68.503113,37.940971 
M174.464401,40.998493 
	C167.392517,49.256279 165.684097,58.756069 168.423126,69.041832 
	C172.823181,85.565094 188.196289,92.283089 206.304840,85.423080 
	C205.591324,91.929688 204.442566,97.962761 198.074142,101.050629 
	C190.677124,104.637230 186.786743,99.167923 182.688278,94.127464 
	C178.777496,97.671112 175.066986,101.033272 171.374161,104.379410 
	C180.472214,114.934601 192.271072,118.296455 204.078125,114.059151 
	C215.743729,109.872597 222.852966,99.540154 222.952530,86.259834 
	C223.057404,72.272308 222.977905,58.283401 222.978851,44.295097 
	C222.979095,40.691853 222.978897,37.088604 222.978897,32.760971 
	C216.539963,33.217487 210.781052,33.625790 202.943359,34.181477 
	C194.697037,30.088778 184.496979,31.854536 174.464401,40.998493 
M565.637329,70.500107 
	C565.637329,58.221710 565.637329,45.943314 565.637329,32.992741 
	C559.414795,34.220371 553.258484,30.925289 547.548828,35.486103 
	C537.927856,30.434370 525.937317,32.252556 517.944824,40.358944 
	C509.135162,49.294182 507.101959,64.177109 513.291748,75.545708 
	C516.712646,81.828690 522.012817,85.887207 528.890015,87.920868 
	C535.823181,89.971062 542.442627,89.038612 549.340576,84.869820 
	C549.340576,95.238617 549.340576,104.469940 549.340576,113.588104 
	C554.907227,113.588104 560.005859,113.588104 564.988403,113.588104 
	C565.246033,113.033997 565.501038,112.740593 565.502258,112.446075 
	C565.561096,98.797478 565.597717,85.148796 565.637329,70.500107 
M457.611786,88.348007 
	C474.480988,83.702965 482.558380,69.392929 478.104584,52.135502 
	C476.316681,45.207787 472.625397,39.626827 466.353424,36.117653 
	C457.817200,31.341593 449.053436,31.182096 439.906281,36.528610 
	C439.906281,26.379749 439.906281,17.124001 439.906281,7.719542 
	C434.444519,7.719542 429.352661,7.719542 424.067871,7.719542 
	C424.067871,34.512642 424.067871,61.048676 424.067871,88.122574 
	C429.897400,87.098808 435.848663,89.797653 440.035492,87.050255 
	C446.203613,87.605713 451.496033,88.082306 457.611786,88.348007 
M300.282867,17.568424 
	C300.282867,40.974895 300.282867,64.381363 300.282867,87.625977 
	C306.262207,87.625977 311.497040,87.625977 316.900787,87.625977 
	C316.900787,86.421654 316.899506,85.600891 316.901001,84.780128 
	C316.919220,74.787224 316.791779,64.791153 317.008301,54.802540 
	C317.149719,48.279469 320.741669,44.979568 327.044769,44.903526 
	C333.004333,44.831623 335.513641,47.487812 335.921753,54.413319 
	C336.039185,56.405872 335.989044,58.409172 335.990326,60.407555 
	C335.996124,69.507454 335.992859,78.607353 335.992859,87.670258 
	C341.763000,87.670258 346.974854,87.670258 352.078339,87.670258 
	C352.078339,75.364143 352.410187,63.386612 351.989594,51.435566 
	C351.523102,38.182091 344.203369,31.645504 330.975830,32.595081 
	C326.263123,32.933392 321.662628,34.835018 316.791168,36.079163 
	C316.791168,27.360516 316.791168,17.634308 316.791168,7.812929 
	C311.102661,7.812929 305.871490,7.812929 300.283051,7.812929 
	C300.283051,10.979822 300.283051,13.786760 300.282867,17.568424 
M387.511383,88.206886 
	C390.665588,86.969330 393.819794,85.731781 395.759979,84.970543 
	C401.582672,90.446281 407.940674,86.846352 413.489655,88.040535 
	C413.489655,69.394073 413.489655,51.375980 413.489655,33.434502 
	C407.975677,33.434502 402.881805,33.434502 397.289825,33.434502 
	C397.289825,36.002956 397.299408,38.292850 397.288116,40.582642 
	C397.245392,49.237514 397.390717,57.899227 397.085876,66.544991 
	C396.851562,73.190903 393.366669,76.300720 386.992157,76.349731 
	C381.150085,76.394653 378.685974,73.782181 378.213898,66.689049 
	C377.993225,63.373219 378.114807,60.033520 378.110291,56.704601 
	C378.099823,48.953220 378.106964,41.201813 378.106964,33.449039 
	C372.331970,33.449039 367.256683,33.449039 361.891205,33.449039 
	C361.891205,45.205498 361.670166,56.670139 361.944580,68.122910 
	C362.328064,84.128418 370.852692,90.973419 387.511383,88.206886 
M274.352814,88.537033 
	C276.337616,88.692825 278.324310,89.002136 280.306885,88.977676 
	C288.640381,88.874916 290.075104,87.412102 290.072083,79.301132 
	C290.071381,77.377541 290.071960,75.453941 290.071960,73.345085 
	C281.713593,76.832169 277.806885,75.595695 277.346313,69.018784 
	C276.839325,61.779335 277.230713,54.476971 277.230713,46.691017 
	C281.687714,46.691017 285.759155,46.691017 289.723175,46.691017 
	C289.723175,41.923454 289.723175,37.682621 289.723175,33.089607 
	C285.444519,33.089607 281.508484,33.089607 277.128052,33.089607 
	C277.128052,27.816515 277.128052,22.890543 277.128052,17.843548 
	C271.467072,17.843548 266.265594,17.843548 260.532898,17.843548 
	C260.532898,23.113386 260.532898,28.004883 260.532898,32.936367 
	C258.367828,33.107594 256.734833,33.236744 254.998932,33.374027 
	C254.998932,37.896797 254.998932,42.259968 254.998932,46.637337 
	C257.041016,46.816433 258.676208,46.959846 260.966858,47.160744 
	C260.966858,55.054295 260.656708,62.868488 261.051178,70.646957 
	C261.473328,78.972359 264.306671,86.014244 274.352814,88.537033 
M248.619904,78.442261 
	C248.619904,63.411793 248.619904,48.381329 248.619904,33.419399 
	C242.645920,33.419399 237.557053,33.419399 232.342575,33.419399 
	C232.342575,51.709728 232.342575,69.717682 232.342575,87.671310 
	C237.867798,87.671310 243.079300,87.671310 248.620193,87.671310 
	C248.620193,84.694199 248.620193,82.057701 248.619904,78.442261 
M487.111603,65.499947 
	C487.111603,72.916946 487.111603,80.333946 487.111603,87.673439 
	C492.993134,87.673439 498.215393,87.673439 503.494263,87.673439 
	C503.494263,69.446457 503.494263,51.563099 503.494263,33.421654 
	C498.012878,33.421654 492.801270,33.421654 487.111389,33.421654 
	C487.111389,43.965107 487.111389,54.232529 487.111603,65.499947 
M241.968063,9.508563 
	C235.787415,9.317460 232.579224,11.306036 231.765060,15.832812 
	C230.945038,20.392332 233.660751,24.609722 238.109497,25.685448 
	C242.507751,26.748970 247.054337,24.299484 248.523346,20.074986 
	C250.019257,15.773022 247.760925,11.764756 241.968063,9.508563 
M488.507690,22.735966 
	C491.779968,26.210430 495.656891,26.902838 499.781677,24.674456 
	C503.187073,22.834717 504.628540,19.674391 503.857880,15.842891 
	C503.076599,11.958425 500.332703,9.480453 496.565796,9.551965 
	C493.854004,9.603447 489.865356,10.569458 488.799957,12.456426 
	C487.367371,14.993792 488.201385,18.810863 488.507690,22.735966 
z"/>
<path fill="#673AA7" opacity="1.000000" stroke="none" 
	d="
M68.046684,120.247681 
	C67.476738,119.954201 66.554108,119.791687 66.389259,119.347778 
	C63.489162,111.538223 56.395092,108.076378 50.255939,103.617554 
	C38.878159,95.353928 26.687584,88.800179 13.032985,85.013847 
	C10.398890,84.283432 8.207091,81.957977 4.819157,79.710045 
	C8.513549,78.139221 10.579437,77.260818 13.088828,76.193848 
	C10.808927,73.380157 8.769962,70.863815 6.437020,67.984673 
	C8.729337,66.845078 10.698154,65.866310 12.905644,64.768890 
	C10.596887,62.629898 8.551639,60.735039 5.807287,58.192486 
	C14.336563,56.119480 13.744582,50.227619 13.865578,43.827381 
	C14.237391,24.159819 26.432642,8.417229 44.282452,3.479999 
	C44.527332,17.413406 42.266777,31.485916 45.791405,44.575108 
	C53.397881,42.226868 60.280628,40.102055 67.580139,38.491711 
	C68.013489,66.086678 68.030090,93.167183 68.046684,120.247681 
z"/>
<path fill="#673BA7" opacity="1.000000" stroke="none" 
	d="
M69.010742,38.096909 
	C75.907928,40.131573 82.805122,42.166237 90.505531,44.437847 
	C93.925667,31.603846 91.758125,17.507935 92.073830,3.556314 
	C109.272827,7.644592 122.172852,24.264370 122.595909,43.903835 
	C122.734695,50.347057 122.225845,56.192337 130.951660,58.215775 
	C128.046982,60.710354 125.922569,62.534832 123.345932,64.747688 
	C125.855644,65.893585 127.753510,66.760124 130.105560,67.834038 
	C127.932831,70.528465 125.895218,73.055351 123.418800,76.126404 
	C125.715668,77.142410 127.720345,78.029175 131.205276,79.570709 
	C128.528656,81.635071 126.617302,84.192383 124.220490,84.784439 
	C106.847725,89.075867 92.374855,98.756721 78.347603,109.167961 
	C75.178627,111.520012 73.165192,115.428955 70.039726,118.549606 
	C69.306107,116.839195 69.020477,115.200539 69.018883,113.561607 
	C68.994362,88.406731 69.006851,63.251816 69.010742,38.096909 
z"/>
<path fill="#551665" opacity="1.000000" stroke="none" 
	d="
M174.713058,40.736763 
	C184.496979,31.854536 194.697037,30.088778 202.943359,34.181477 
	C210.781052,33.625790 216.539963,33.217487 222.978897,32.760971 
	C222.978897,37.088604 222.979095,40.691853 222.978851,44.295097 
	C222.977905,58.283401 223.057404,72.272308 222.952530,86.259834 
	C222.852966,99.540154 215.743729,109.872597 204.078125,114.059151 
	C192.271072,118.296455 180.472214,114.934601 171.374161,104.379410 
	C175.066986,101.033272 178.777496,97.671112 182.688278,94.127464 
	C186.786743,99.167923 190.677124,104.637230 198.074142,101.050629 
	C204.442566,97.962761 205.591324,91.929688 206.304840,85.423080 
	C188.196289,92.283089 172.823181,85.565094 168.423126,69.041832 
	C165.684097,58.756069 167.392517,49.256279 174.713058,40.736763 
M203.591354,73.204849 
	C209.930939,65.682922 210.421097,56.641167 204.875412,49.518143 
	C200.073120,43.349945 192.350388,43.316158 187.477005,49.442013 
	C182.947311,55.135841 182.532684,64.081215 186.499878,70.522675 
	C190.422501,76.891754 196.761566,78.126801 203.591354,73.204849 
z"/>
<path fill="#561866" opacity="1.000000" stroke="none" 
	d="
M565.637085,71.000107 
	C565.597717,85.148796 565.561096,98.797478 565.502258,112.446075 
	C565.501038,112.740593 565.246033,113.033997 564.988403,113.588104 
	C560.005859,113.588104 554.907227,113.588104 549.340576,113.588104 
	C549.340576,104.469940 549.340576,95.238617 549.340576,84.869820 
	C542.442627,89.038612 535.823181,89.971062 528.890015,87.920868 
	C522.012817,85.887207 516.712646,81.828690 513.291748,75.545708 
	C507.101959,64.177109 509.135162,49.294182 517.944824,40.358944 
	C525.937317,32.252556 537.927856,30.434370 547.548828,35.486103 
	C553.258484,30.925289 559.414795,34.220371 565.637329,32.992741 
	C565.637329,45.943314 565.637329,58.221710 565.637085,71.000107 
M530.234680,72.253586 
	C536.228455,79.393715 546.406555,77.201614 550.009094,67.034813 
	C552.106445,61.115902 551.218994,55.563946 547.791016,50.431145 
	C543.157043,43.492634 535.059937,43.265919 529.866333,49.832455 
	C525.040405,55.934090 525.009033,63.580044 530.234680,72.253586 
z"/>
<path fill="#541564" opacity="1.000000" stroke="none" 
	d="
M457.200104,88.453453 
	C451.496033,88.082306 446.203613,87.605713 440.035492,87.050255 
	C435.848663,89.797653 429.897400,87.098808 424.067871,88.122574 
	C424.067871,61.048676 424.067871,34.512642 424.067871,7.719542 
	C429.352661,7.719542 434.444519,7.719542 439.906281,7.719542 
	C439.906281,17.124001 439.906281,26.379749 439.906281,36.528610 
	C449.053436,31.182096 457.817200,31.341593 466.353424,36.117653 
	C472.625397,39.626827 476.316681,45.207787 478.104584,52.135502 
	C482.558380,69.392929 474.480988,83.702965 457.200104,88.453453 
M461.356506,53.463013 
	C459.108765,48.661888 455.887390,44.840126 450.129761,45.133533 
	C444.000061,45.445908 440.871124,49.755505 438.956848,55.070660 
	C437.023071,60.440037 437.901917,65.569969 440.750824,70.365158 
	C445.523560,78.398460 455.286560,78.406509 460.160034,70.424759 
	C463.308319,65.268463 463.694427,59.819778 461.356506,53.463013 
z"/>
<path fill="#561866" opacity="1.000000" stroke="none" 
	d="
M300.282959,17.081062 
	C300.283051,13.786760 300.283051,10.979822 300.283051,7.812929 
	C305.871490,7.812929 311.102661,7.812929 316.791168,7.812929 
	C316.791168,17.634308 316.791168,27.360516 316.791168,36.079163 
	C321.662628,34.835018 326.263123,32.933392 330.975830,32.595081 
	C344.203369,31.645504 351.523102,38.182091 351.989594,51.435566 
	C352.410187,63.386612 352.078339,75.364143 352.078339,87.670258 
	C346.974854,87.670258 341.763000,87.670258 335.992859,87.670258 
	C335.992859,78.607353 335.996124,69.507454 335.990326,60.407555 
	C335.989044,58.409172 336.039185,56.405872 335.921753,54.413319 
	C335.513641,47.487812 333.004333,44.831623 327.044769,44.903526 
	C320.741669,44.979568 317.149719,48.279469 317.008301,54.802540 
	C316.791779,64.791153 316.919220,74.787224 316.901001,84.780128 
	C316.899506,85.600891 316.900787,86.421654 316.900787,87.625977 
	C311.497040,87.625977 306.262207,87.625977 300.282867,87.625977 
	C300.282867,64.381363 300.282867,40.974895 300.282959,17.081062 
z"/>
<path fill="#561765" opacity="1.000000" stroke="none" 
	d="
M387.103577,88.318024 
	C370.852692,90.973419 362.328064,84.128418 361.944580,68.122910 
	C361.670166,56.670139 361.891205,45.205498 361.891205,33.449039 
	C367.256683,33.449039 372.331970,33.449039 378.106964,33.449039 
	C378.106964,41.201813 378.099823,48.953220 378.110291,56.704601 
	C378.114807,60.033520 377.993225,63.373219 378.213898,66.689049 
	C378.685974,73.782181 381.150085,76.394653 386.992157,76.349731 
	C393.366669,76.300720 396.851562,73.190903 397.085876,66.544991 
	C397.390717,57.899227 397.245392,49.237514 397.288116,40.582642 
	C397.299408,38.292850 397.289825,36.002956 397.289825,33.434502 
	C402.881805,33.434502 407.975677,33.434502 413.489655,33.434502 
	C413.489655,51.375980 413.489655,69.394073 413.489655,88.040535 
	C407.940674,86.846352 401.582672,90.446281 395.759979,84.970543 
	C393.819794,85.731781 390.665588,86.969330 387.103577,88.318024 
z"/>
<path fill="#551665" opacity="1.000000" stroke="none" 
	d="
M273.959961,88.401581 
	C264.306671,86.014244 261.473328,78.972359 261.051178,70.646957 
	C260.656708,62.868488 260.966858,55.054295 260.966858,47.160744 
	C258.676208,46.959846 257.041016,46.816433 254.998932,46.637337 
	C254.998932,42.259968 254.998932,37.896797 254.998932,33.374027 
	C256.734833,33.236744 258.367828,33.107594 260.532898,32.936367 
	C260.532898,28.004883 260.532898,23.113386 260.532898,17.843548 
	C266.265594,17.843548 271.467072,17.843548 277.128052,17.843548 
	C277.128052,22.890543 277.128052,27.816515 277.128052,33.089607 
	C281.508484,33.089607 285.444519,33.089607 289.723175,33.089607 
	C289.723175,37.682621 289.723175,41.923454 289.723175,46.691017 
	C285.759155,46.691017 281.687714,46.691017 277.230713,46.691017 
	C277.230713,54.476971 276.839325,61.779335 277.346313,69.018784 
	C277.806885,75.595695 281.713593,76.832169 290.071960,73.345085 
	C290.071960,75.453941 290.071381,77.377541 290.072083,79.301132 
	C290.075104,87.412102 288.640381,88.874916 280.306885,88.977676 
	C278.324310,89.002136 276.337616,88.692825 273.959961,88.401581 
z"/>
<path fill="#581B68" opacity="1.000000" stroke="none" 
	d="
M248.620056,78.931732 
	C248.620193,82.057701 248.620193,84.694199 248.620193,87.671310 
	C243.079300,87.671310 237.867798,87.671310 232.342575,87.671310 
	C232.342575,69.717682 232.342575,51.709728 232.342575,33.419399 
	C237.557053,33.419399 242.645920,33.419399 248.619904,33.419399 
	C248.619904,48.381329 248.619904,63.411793 248.620056,78.931732 
z"/>
<path fill="#581B68" opacity="1.000000" stroke="none" 
	d="
M487.111511,64.999954 
	C487.111389,54.232529 487.111389,43.965107 487.111389,33.421654 
	C492.801270,33.421654 498.012878,33.421654 503.494263,33.421654 
	C503.494263,51.563099 503.494263,69.446457 503.494263,87.673439 
	C498.215393,87.673439 492.993134,87.673439 487.111603,87.673439 
	C487.111603,80.333946 487.111603,72.916946 487.111511,64.999954 
z"/>
<path fill="#571866" opacity="1.000000" stroke="none" 
	d="
M242.335083,9.625832 
	C247.760925,11.764756 250.019257,15.773022 248.523346,20.074986 
	C247.054337,24.299484 242.507751,26.748970 238.109497,25.685448 
	C233.660751,24.609722 230.945038,20.392332 231.765060,15.832812 
	C232.579224,11.306036 235.787415,9.317460 242.335083,9.625832 
z"/>
<path fill="#561866" opacity="1.000000" stroke="none" 
	d="
M488.285095,22.407303 
	C488.201385,18.810863 487.367371,14.993792 488.799957,12.456426 
	C489.865356,10.569458 493.854004,9.603447 496.565796,9.551965 
	C500.332703,9.480453 503.076599,11.958425 503.857880,15.842891 
	C504.628540,19.674391 503.187073,22.834717 499.781677,24.674456 
	C495.656891,26.902838 491.779968,26.210430 488.285095,22.407303 
z"/>
<path fill="#754CAE" opacity="1.000000" stroke="none" 
	d="
M68.756927,38.018940 
	C69.006851,63.251816 68.994362,88.406731 69.018883,113.561607 
	C69.020477,115.200539 69.306107,116.839195 69.771683,118.765587 
	C69.625443,119.489174 69.167114,119.925148 68.377731,120.304398 
	C68.030090,93.167183 68.013489,66.086678 67.993744,38.543095 
	C68.161438,38.033665 68.332275,37.987316 68.756927,38.018940 
z"/>
<path fill="#FCFBFD" opacity="1.000000" stroke="none" 
	d="
M203.316513,73.475189 
	C196.761566,78.126801 190.422501,76.891754 186.499878,70.522675 
	C182.532684,64.081215 182.947311,55.135841 187.477005,49.442013 
	C192.350388,43.316158 200.073120,43.349945 204.875412,49.518143 
	C210.421097,56.641167 209.930939,65.682922 203.316513,73.475189 
z"/>
<path fill="#FCFBFC" opacity="1.000000" stroke="none" 
	d="
M530.005676,71.952133 
	C525.009033,63.580044 525.040405,55.934090 529.866333,49.832455 
	C535.059937,43.265919 543.157043,43.492634 547.791016,50.431145 
	C551.218994,55.563946 552.106445,61.115902 550.009094,67.034813 
	C546.406555,77.201614 536.228455,79.393715 530.005676,71.952133 
z"/>
<path fill="#FCFBFC" opacity="1.000000" stroke="none" 
	d="
M461.546082,53.809681 
	C463.694427,59.819778 463.308319,65.268463 460.160034,70.424759 
	C455.286560,78.406509 445.523560,78.398460 440.750824,70.365158 
	C437.901917,65.569969 437.023071,60.440037 438.956848,55.070660 
	C440.871124,49.755505 444.000061,45.445908 450.129761,45.133533 
	C455.887390,44.840126 459.108765,48.661888 461.546082,53.809681 
z"/>
</svg>